<?xml version="1.0" encoding="UTF-8"?>
<!DOCTYPE svg PUBLIC "-//W3C//DTD SVG 1.1//EN" "http://www.w3.org/Graphics/SVG/1.1/DTD/svg11.dtd">
<!-- Creator: CorelDRAW -->
<svg xmlns="http://www.w3.org/2000/svg" xml:space="preserve" width="100%" height="auto" version="1.1" style="shape-rendering:geometricPrecision; text-rendering:geometricPrecision; image-rendering:optimizeQuality; fill-rule:evenodd; clip-rule:evenodd"
viewBox="0 0 13546.66 13546.66"
 xmlns:xlink="http://www.w3.org/1999/xlink"
 xmlns:xodm="http://www.corel.com/coreldraw/odm/2003">
 <defs>
  <style type="text/css">
   <![CDATA[
    .fil0 {fill:black}
   ]]>
  </style>
 </defs>
 <g id="Camada_x0020_1">
  <metadata id="CorelCorpID_0Corel-Layer"/>
  <g id="_2610479607712">
   <path class="fil0" d="M-0.01 1609.53l0 6538.65 0 11.87c2.18,249.33 70.72,406.84 164.41,551.09 192.82,296.81 426.56,493.91 724.47,624.1 177.37,77.77 330.54,100.14 513.37,154.15 -7.96,120.72 -78.07,404.66 -105.55,536.85l-344.28 1609.14c129.91,-13.66 1999.01,-1456.19 2098.63,-1531.77l766 -571.67c143.96,-89.64 1807.43,-42.55 2056.62,-42.55l4127.62 0c704.01,2.18 1455.18,-502 1455.18,-1307.77l0 -6605.74c0,-775.67 -759.44,-1575.89 -1322.94,-1575.89l-8651.8 0c-520.09,0 -1481.73,768.95 -1481.73,1609.54zm2887.32 1919.06c425.47,0 770.39,437.13 770.39,976.34 0,539.22 -344.92,976.35 -770.39,976.35 -425.47,0 -770.39,-437.13 -770.39,-976.35 0,-539.21 344.92,-976.34 770.39,-976.34zm5692.13 0c425.47,0 770.39,437.13 770.39,976.34 0,539.22 -344.92,976.35 -770.39,976.35 -425.47,0 -770.39,-437.13 -770.39,-976.35 0,-539.21 344.92,-976.34 770.39,-976.34zm-2846.07 0c425.47,0 770.39,437.13 770.39,976.34 0,539.22 -344.92,976.35 -770.39,976.35 -425.47,0 -770.39,-437.13 -770.39,-976.35 0,-539.21 344.92,-976.34 770.39,-976.34z"/>
   <path class="fil0" d="M12223.71 8550.47c0,1301.63 -455.91,1743.69 -1349.32,1743.69l-7037.99 0c0,832.47 384.1,1394.84 975.07,1614.48 332.41,123.48 3027.79,62.14 3522.9,62.14l2143.43 -0.6c328.82,-3.56 207.98,15.63 528.83,235.27 173.94,119.13 1711.41,1307.58 1825.7,1341.22l-311.64 -1577.87c655.61,5.54 1025.97,-558.41 1025.97,-1339.23l0 -5901.7c0,-637.75 -356.93,-1139.97 -846.73,-1139.97l-476.22 0 0 4962.57z"/>
  </g>
 </g>
</svg>
