<?xml version="1.0" encoding="UTF-8"?>
<!DOCTYPE svg PUBLIC "-//W3C//DTD SVG 1.1//EN" "http://www.w3.org/Graphics/SVG/1.1/DTD/svg11.dtd">
<!-- Creator: CorelDRAW -->
<svg xmlns="http://www.w3.org/2000/svg" xml:space="preserve" width="586.422mm" height="114.3mm" version="1.1" style="shape-rendering:geometricPrecision; text-rendering:geometricPrecision; image-rendering:optimizeQuality; fill-rule:evenodd; clip-rule:evenodd"
viewBox="0 0 58642.24 11430"
 xmlns:xlink="http://www.w3.org/1999/xlink"
 xmlns:xodm="http://www.corel.com/coreldraw/odm/2003">
 <defs>
  <style type="text/css">
   <![CDATA[
    .fil0 {fill:black}
   ]]>
  </style>
 </defs>
 <g id="Camada_x0020_1">
  <metadata id="CorelCorpID_0Corel-Layer"/>
  <g id="_2610470935824">
   <path class="fil0" d="M22540.38 1640.48l0 5159.35 0 9.37c2.18,196.73 70.72,321.02 164.41,434.84 192.82,234.2 426.56,389.72 724.47,492.45 177.37,61.36 330.54,79.01 513.37,121.63 -7.96,95.25 -78.07,319.3 -105.55,423.6l-344.28 1269.7c129.91,-10.78 1999.01,-1149.01 2098.63,-1208.65l766 -451.08c143.96,-70.73 1807.43,-33.57 2056.62,-33.57l4127.62 0c704.01,1.72 1455.18,-396.11 1455.18,-1031.9l0 -5212.29c0,-612.05 -759.44,-1243.46 -1322.94,-1243.46l-8651.8 0c-520.09,0 -1481.73,606.74 -1481.73,1270.01zm2887.32 1514.24c425.47,0 770.39,344.92 770.39,770.39 0,425.47 -344.92,770.39 -770.39,770.39 -425.47,0 -770.39,-344.92 -770.39,-770.39 0,-425.47 344.92,-770.39 770.39,-770.39zm5692.13 0c425.47,0 770.39,344.92 770.39,770.39 0,425.47 -344.92,770.39 -770.39,770.39 -425.47,0 -770.39,-344.92 -770.39,-770.39 0,-425.47 344.92,-770.39 770.39,-770.39zm-2846.07 0c425.47,0 770.39,344.92 770.39,770.39 0,425.47 -344.92,770.39 -770.39,770.39 -425.47,0 -770.39,-344.92 -770.39,-770.39 0,-425.47 344.92,-770.39 770.39,-770.39z"/>
   <path class="fil0" d="M34764.1 7117.26c0,1027.06 -455.91,1375.87 -1349.32,1375.87l-7037.99 0c0,656.86 384.1,1100.6 975.07,1273.91 332.41,97.43 3027.79,49.03 3522.9,49.03l2143.43 -0.47c328.82,-2.81 207.98,12.33 528.83,185.64 173.94,94 1711.41,1031.75 1825.7,1058.29l-311.64 -1245.02c655.61,4.37 1025.97,-440.62 1025.97,-1056.73l0 -4656.76c0,-503.22 -356.93,-899.5 -846.73,-899.5l-476.22 0 0 3915.74z"/>
  </g>
 </g>
</svg>
