<?xml version="1.0" encoding="UTF-8"?>
<!DOCTYPE svg PUBLIC "-//W3C//DTD SVG 1.1//EN" "http://www.w3.org/Graphics/SVG/1.1/DTD/svg11.dtd">
<!-- Creator: CorelDRAW -->
<svg xmlns="http://www.w3.org/2000/svg" xml:space="preserve" width="586.422mm" height="114.3mm" version="1.1" style="shape-rendering:geometricPrecision; text-rendering:geometricPrecision; image-rendering:optimizeQuality; fill-rule:evenodd; clip-rule:evenodd"
viewBox="0 0 58642.24 11430"
 xmlns:xlink="http://www.w3.org/1999/xlink"
 xmlns:xodm="http://www.corel.com/coreldraw/odm/2003">
 <defs>
  <style type="text/css">
   <![CDATA[
    .fil0 {fill:#FEFEFE}
    .fil1 {fill:#FEFEFE;fill-rule:nonzero}
   ]]>
  </style>
 </defs>
 <g id="Camada_x0020_1">
  <metadata id="CorelCorpID_0Corel-Layer"/>
  <g id="_2610391590480">
   <path class="fil0" d="M-7.41 1647.61l0 5159.35 0 9.37c2.18,196.73 70.72,321.02 164.41,434.84 192.82,234.2 426.56,389.72 724.47,492.45 177.37,61.36 330.54,79.01 513.37,121.63 -7.96,95.25 -78.07,319.3 -105.55,423.6l-344.28 1269.7c129.91,-10.78 1999.01,-1149.01 2098.63,-1208.65l766 -451.08c143.96,-70.73 1807.43,-33.57 2056.62,-33.57l4127.62 0c704.01,1.72 1455.18,-396.11 1455.18,-1031.9l0 -5212.29c0,-612.05 -759.44,-1243.46 -1322.94,-1243.46l-8651.8 0c-520.09,0 -1481.73,606.74 -1481.73,1270.01zm2887.32 1514.24c425.47,0 770.39,344.92 770.39,770.39 0,425.47 -344.92,770.39 -770.39,770.39 -425.47,0 -770.39,-344.92 -770.39,-770.39 0,-425.47 344.92,-770.39 770.39,-770.39zm5692.13 0c425.47,0 770.39,344.92 770.39,770.39 0,425.47 -344.92,770.39 -770.39,770.39 -425.47,0 -770.39,-344.92 -770.39,-770.39 0,-425.47 344.92,-770.39 770.39,-770.39zm-2846.07 0c425.47,0 770.39,344.92 770.39,770.39 0,425.47 -344.92,770.39 -770.39,770.39 -425.47,0 -770.39,-344.92 -770.39,-770.39 0,-425.47 344.92,-770.39 770.39,-770.39z"/>
   <path class="fil0" d="M12216.31 7124.39c0,1027.06 -455.91,1375.87 -1349.32,1375.87l-7037.99 0c0,656.86 384.1,1100.6 975.07,1273.91 332.41,97.43 3027.79,49.03 3522.9,49.03l2143.43 -0.47c328.82,-2.81 207.98,12.33 528.83,185.64 173.94,94 1711.41,1031.75 1825.7,1058.29l-311.64 -1245.02c655.61,4.37 1025.97,-440.62 1025.97,-1056.73l0 -4656.76c0,-503.22 -356.93,-899.5 -846.73,-899.5l-476.22 0 0 3915.74z"/>
  </g>
  <polygon class="fil1" points="16301.52,8314.86 16301.52,76.74 18521.53,76.74 18521.53,6910.9 24017.97,6910.9 24017.97,8314.86 "/>
  <path id="_1" class="fil1" d="M30170.22 6411.97l2097.53 266.87c-267.95,582.08 -694.07,1024.93 -1273.32,1330.47 -581.8,303.62 -1309.05,456.39 -2179.19,456.39 -1380.49,0 -2403.73,-342.29 -3064.63,-1026.87 -523.11,-549.2 -785.93,-1241.51 -785.93,-2078.86 0,-997.86 344.47,-1781.06 1030.89,-2345.74 686.42,-566.61 1556.57,-848.95 2607.88,-848.95 1178.91,0 2110.28,295.88 2794.15,887.63 681.31,591.75 1007.93,1498.72 977.32,2720.9l-5251.47 0c15.3,471.85 183.72,839.28 507.79,1102.28 321.52,263 724.7,394.5 1204.42,394.5 329.17,0 604.75,-67.68 826.76,-203.05 224.55,-135.37 392.97,-353.89 507.8,-655.57zm122.48 -1612.81c-15.31,-462.19 -170.96,-814.15 -469.52,-1053.94 -298.55,-241.73 -660.89,-361.63 -1089.6,-361.63 -456.75,0 -834.41,127.64 -1132.97,380.97 -298.55,253.33 -443.99,599.49 -438.9,1034.6l3130.99 0z"/>
  <polygon id="_2" class="fil1" points="34015.68,8314.86 34015.68,7.13 36113.21,7.13 36113.21,4414.32 38570.54,2292.91 41157.99,2292.91 38448.04,4493.61 41357.03,8314.86 39091.09,8314.86 37085.42,5597.83 36113.21,6386.83 36113.21,8314.86 "/>
  <path id="_3" class="fil1" d="M47858.86 8314.86l0 -901.16c-290.91,321.01 -671.11,576.28 -1143.19,767.73 -472.07,189.51 -969.65,284.27 -1492.76,284.27 -535.86,0 -1015.59,-88.96 -1439.18,-266.87 -426.14,-177.91 -732.35,-429.31 -921.18,-750.33 -191.38,-322.95 -285.79,-767.73 -285.79,-1336.27l0 -3819.32 2097.53 0 0 2773.12c0,848.95 38.26,1367.21 117.37,1558.66 76.56,191.45 216.9,344.22 423.59,454.45 204.15,112.16 464.42,168.25 780.83,168.25 359.8,0 681.31,-75.42 967.11,-224.33 285.79,-148.9 479.72,-334.55 584.35,-556.94 104.63,-222.39 158.21,-763.86 158.21,-1628.29l0 -2544.92 2097.53 0 0 6021.95 -1944.42 0z"/>
  <path id="_4" class="fil1" d="M51209.29 6620.82l2112.83 -243.66c89.31,307.48 270.49,541.47 546.08,700.05 273.03,160.51 658.35,239.79 1150.83,239.79 543.51,0 951.8,-75.42 1227.38,-226.25 183.72,-106.37 275.59,-249.47 275.59,-427.38 0,-119.9 -51.03,-220.46 -150.55,-299.74 -104.62,-75.42 -339.38,-146.98 -701.73,-210.79 -1696.9,-284.28 -2771.19,-543.41 -3225.4,-777.4 -630.27,-326.82 -944.13,-779.34 -944.13,-1357.55 0,-524.07 273.02,-963.05 816.55,-1318.87 543.52,-355.83 1385.59,-533.74 2526.21,-533.74 1087.04,0 1895.95,135.37 2424.16,404.17 528.2,270.74 893.1,669.11 1092.14,1197.04l-1975.04 278.47c-84.21,-235.92 -247.53,-417.7 -484.83,-543.4 -237.32,-125.7 -576.7,-187.58 -1018.15,-187.58 -556.27,0 -954.34,58.01 -1196.77,175.97 -160.75,83.16 -239.86,191.45 -239.86,322.95 0,114.1 68.91,210.79 209.25,290.08 191.37,106.36 847.18,255.26 1969.93,448.65 1122.77,193.38 1906.16,429.31 2350.16,709.71 441.44,282.34 660.89,678.78 660.89,1185.44 0,551.14 -303.65,1026.86 -913.52,1423.3 -607.31,396.43 -1508.07,595.62 -2702.28,595.62 -1081.94,0 -1939.32,-166.31 -2572.15,-497 -630.28,-330.68 -1043.66,-779.33 -1237.59,-1347.88z"/>
  <g id="_2610391587504">
   <path class="fil1" d="M17466.04 10550.69l-657.34 0 -168.33 363.33 -338.86 0 689.23 -1429.23 290.58 0 689.24 1429.23 -336.21 0 -168.31 -363.33zm-331.33 -722.27c-62.01,148.83 -116.95,273.59 -164.78,373.9l-58.92 129.5 452.7 0 -58.92 -129.13c-47.83,-101.05 -102.76,-225.8 -164.77,-374.27l-5.31 0z"/>
   <path id="_1_56" class="fil1" d="M18937.09 10940.28c-90.81,0 -172.76,-7.29 -245.4,-21.88 -72.65,-14.59 -136.42,-35.75 -191.79,-63.11 -55.38,-27.36 -102.77,-60.92 -141.75,-100.32 -38.99,-39.39 -69.99,-84.26 -93.46,-133.87 -19.05,-40.13 -32.79,-84.27 -40.75,-132.42 -8.42,-48.52 -12.41,-102.5 -12.41,-162.33l0 -841.56 318.93 0 0 817.85c0,101.05 14.62,180.2 43.85,237.11 33.22,63.47 81.06,109.07 143.96,137.16 62.9,28.09 137.31,42.31 222.8,42.31 85.5,0 159.91,-14.22 222.81,-42.31 62.9,-28.09 110.74,-73.69 143.95,-137.16 29.24,-56.91 43.86,-136.06 43.86,-237.11l0 -817.85 318.92 0 0 841.56c0,59.83 -3.98,113.81 -12.39,162.33 -7.98,48.15 -21.7,92.29 -40.76,132.42 -23.47,49.61 -54.92,94.48 -94.35,133.87 -38.97,39.4 -87.25,72.96 -143.95,100.32 -56.71,27.36 -121.82,48.52 -195.35,63.11 -73.53,14.59 -155.92,21.88 -246.72,21.88z"/>
   <polygon id="_2_57" class="fil1" points="20789.96,10914.02 20471.04,10914.02 20471.04,9703.66 19910.25,9703.66 19910.25,9484.79 21349.41,9484.79 21349.41,9703.66 20789.96,9703.66 "/>
   <path id="_3_58" class="fil1" d="M22814.69 10198.31c0,-87.18 -12.83,-163.06 -38.98,-228.35 -25.68,-65.3 -61.56,-119.65 -107.63,-163.06 -45.62,-43.41 -100.11,-75.88 -163.01,-97.4 -62.9,-21.52 -132,-32.1 -207.3,-32.1 -75.3,0 -144.4,10.58 -207.3,32.1 -62.9,21.52 -117.39,53.99 -163.01,97.4 -46.07,43.41 -81.94,97.76 -107.63,163.06 -26.13,65.29 -38.98,141.17 -38.98,228.35 0,86.82 12.85,163.06 38.98,228.36 25.69,65.29 61.56,119.28 107.63,162.69 45.62,43.05 100.11,75.51 163.01,97.4 62.9,21.52 132,32.46 207.3,32.46 75.3,0 144.4,-10.94 207.3,-32.46 62.9,-21.89 117.39,-54.35 163.01,-97.4 46.07,-43.41 81.95,-97.4 107.63,-162.69 26.15,-65.3 38.98,-141.54 38.98,-228.36zm329.56 0c0,109.07 -18.6,209.02 -56.24,299.86 -37.66,90.83 -93.03,169.26 -165.23,234.55 -72.2,65.66 -160.79,116.73 -266.21,153.21 -104.99,36.12 -224.58,54.35 -358.8,54.35 -134.21,0 -253.81,-18.23 -358.78,-54.35 -105.43,-36.48 -194.02,-87.55 -266.22,-153.21 -72.21,-65.29 -127.13,-143.72 -164.78,-234.55 -37.66,-90.84 -56.7,-190.79 -56.7,-299.86 0,-109.07 19.04,-209.02 56.7,-299.85 37.65,-90.83 92.57,-169.26 164.78,-234.56 72.2,-65.66 160.79,-116.73 266.22,-153.21 104.97,-36.11 224.57,-54.35 358.78,-54.35 134.22,0 253.81,18.24 358.8,54.35 105.42,36.48 194.01,87.55 266.21,153.21 72.2,65.3 127.57,143.73 165.23,234.56 37.64,90.83 56.24,190.78 56.24,299.85z"/>
   <path id="_4_59" class="fil1" d="M24373.01 10530.63c38.09,-112.72 85.04,-233.46 141.3,-362.23l299.88 -683.61 446.5 0 0 1429.23 -318.93 0 0 -724.1c0,-106.15 5.32,-229.45 15.51,-369.89l-11.53 0c-14.62,40.86 -31.88,86.45 -51.82,136.79 -19.93,50.71 -40.75,100.68 -62.45,149.57l-358.8 807.63 -204.65 0 -358.78 -807.63c-21.71,-48.89 -42.52,-98.86 -62.46,-149.57 -19.93,-50.34 -37.21,-95.93 -51.83,-136.79l-11.51 0c10.19,132.05 15.49,254.62 15.49,368.8l0 725.19 -318.92 0 0 -1429.23 443.84 0 299.88 680.33c50.05,113.44 97.46,235.28 141.3,365.51l7.98 0z"/>
   <path id="_5" class="fil1" d="M26671.5 10550.69l-657.34 0 -168.33 363.33 -338.86 0 689.23 -1429.23 290.58 0 689.24 1429.23 -336.21 0 -168.31 -363.33zm-331.33 -722.27c-62.02,148.83 -116.95,273.59 -164.78,373.9l-58.92 129.5 452.7 0 -58.92 -129.13c-47.83,-101.05 -102.76,-225.8 -164.78,-374.27l-5.3 0z"/>
   <path id="_6" class="fil1" d="M27966.69 10920.59c-107.19,-17.88 -201.54,-47.06 -282.16,-87.55 -80.62,-40.86 -148.39,-91.2 -202.43,-151.39 -54.04,-60.19 -94.35,-128.77 -121.81,-206.1 -27.02,-77.34 -40.75,-161.24 -40.75,-251.7 0,-109.07 20.38,-210.48 60.68,-304.23 40.31,-93.75 99.22,-174.74 176.3,-242.95 77.51,-68.58 172.31,-122.2 284.81,-161.6 112.52,-39.03 240.53,-58.73 384.04,-58.73 76.2,0 146.18,4.01 210.85,12.4 64.23,8.03 123.14,19.7 175.85,34.66l0 222.15c-68.21,-17.87 -133.32,-30.28 -194.9,-37.57 -61.13,-6.93 -119.15,-10.58 -173.63,-10.58 -86.37,0 -166.55,11.67 -239.64,35.38 -73.09,23.35 -135.54,57.64 -187.81,102.51 -52.72,44.87 -93.47,100.31 -122.7,166.34 -29.69,66.03 -44.29,141.54 -44.29,226.17 0,84.26 13.28,158.31 40.3,222.15 26.58,63.84 65.12,117.1 115.17,159.78 50.06,42.68 111.18,75.14 183.39,97.03 71.75,21.52 153.7,32.46 245.39,32.46 69.09,0 139.09,-4.74 209.96,-14.59 70.87,-9.48 132,-21.52 182.94,-35.75l0 225.08c-60.68,14.22 -125.8,25.53 -196.23,33.56 -69.98,8.02 -142.63,12.4 -217.49,12.4 -13.74,0 -26.57,-0.37 -37.65,-0.73 -11.07,-0.36 -17.28,-0.36 -18.16,-0.36l-33.66 100.31c35.43,4.38 67.77,11.31 96.56,21.16 28.79,9.48 54.03,21.89 75.74,37.21 21.7,15.32 38.53,33.19 50.49,53.62 11.97,20.06 18.17,43.04 18.17,67.85 0,29.91 -8.86,58 -26.13,84.63 -17.28,26.26 -42.53,49.25 -75.75,69.31 -33.66,20.06 -76.63,35.75 -128.9,47.06 -52.27,11.31 -109.85,17.14 -171.87,17.14 -33.22,0 -66.88,-1.82 -101.87,-5.83 -35,-4.02 -62.02,-8.76 -80.18,-14.23l0 -155.76c19.05,5.1 45.18,9.48 78.85,12.76 33.21,3.65 63.34,5.47 89.92,5.47 32.34,0 59.79,-2.18 82.39,-6.56 23.03,-4.01 41.19,-9.85 54.04,-16.42 12.84,-6.93 22.14,-14.59 27.01,-22.61 5.32,-8.39 7.98,-16.05 7.98,-23.35 0,-22.25 -18.6,-38.67 -56.26,-49.25 -37.65,-10.94 -96.56,-16.78 -177.17,-18.24l80.61 -222.51z"/>
   <path id="_7" class="fil1" d="M29945.81 10550.69l-657.34 0 -168.33 363.33 -338.85 0 689.22 -1429.23 290.58 0 689.24 1429.23 -336.21 0 -168.31 -363.33zm-331.33 -722.27c-62.01,148.83 -116.95,273.59 -164.78,373.9l-58.92 129.5 452.7 0 -58.91 -129.13c-47.84,-101.05 -102.77,-225.8 -164.78,-374.27l-5.31 0zm-191.36 -685.07c33.66,0 67.33,4.75 100.11,14.6 32.78,9.48 63.35,20.42 92.14,32.46 30.11,13.5 58.46,25.54 85.05,35.75 26.13,10.58 49.16,15.69 68.2,15.69 23.92,0 41.2,-6.94 50.94,-20.43 10.19,-13.5 15.06,-36.85 15.06,-69.68l203.77 0c0.88,10.95 1.32,22.62 1.32,35.39 0,27.36 -3.54,54.35 -11.07,81.71 -7.53,27.36 -20.38,51.8 -38.98,74.05 -18.6,22.25 -43.41,39.76 -73.98,52.53 -30.56,12.77 -66.88,19.33 -108.52,19.33 -34.54,0 -67.77,-4.74 -99.67,-14.59 -31.88,-9.48 -62.45,-20.43 -90.8,-32.46 -30.56,-12.77 -58.47,-24.81 -85.05,-35.39 -26.58,-10.58 -49.6,-16.05 -69.54,-16.05 -23.92,0 -41.19,6.93 -51.38,20.43 -9.75,13.5 -14.62,36.48 -14.62,69.31l-203.75 0c-0.89,-11.31 -1.34,-23.35 -1.34,-35.39 0,-27.72 3.55,-55.44 11.07,-82.44 7.1,-27.36 20.38,-51.8 38.98,-73.68 18.61,-21.53 42.98,-39.04 73.98,-51.8 30.56,-12.77 66.88,-19.34 108.08,-19.34z"/>
   <path id="_8" class="fil1" d="M31957.25 10198.31c0,-87.18 -12.83,-163.06 -38.98,-228.35 -25.68,-65.3 -61.56,-119.65 -107.63,-163.06 -45.62,-43.41 -100.11,-75.88 -163.01,-97.4 -62.9,-21.52 -132,-32.1 -207.3,-32.1 -75.3,0 -144.4,10.58 -207.3,32.1 -62.9,21.52 -117.39,53.99 -163.01,97.4 -46.07,43.41 -81.94,97.76 -107.63,163.06 -26.13,65.29 -38.98,141.17 -38.98,228.35 0,86.82 12.85,163.06 38.98,228.36 25.69,65.29 61.56,119.28 107.63,162.69 45.62,43.05 100.11,75.51 163.01,97.4 62.9,21.52 132,32.46 207.3,32.46 75.3,0 144.4,-10.94 207.3,-32.46 62.9,-21.89 117.39,-54.35 163.01,-97.4 46.07,-43.41 81.95,-97.4 107.63,-162.69 26.15,-65.3 38.98,-141.54 38.98,-228.36zm329.56 0c0,109.07 -18.6,209.02 -56.25,299.86 -37.65,90.83 -93.02,169.26 -165.22,234.55 -72.21,65.66 -160.79,116.73 -266.21,153.21 -104.99,36.12 -224.58,54.35 -358.8,54.35 -134.21,0 -253.81,-18.23 -358.78,-54.35 -105.43,-36.48 -194.02,-87.55 -266.23,-153.21 -72.2,-65.29 -127.12,-143.72 -164.77,-234.55 -37.66,-90.84 -56.7,-190.79 -56.7,-299.86 0,-109.07 19.04,-209.02 56.7,-299.85 37.65,-90.83 92.57,-169.26 164.77,-234.56 72.21,-65.66 160.8,-116.73 266.23,-153.21 104.97,-36.11 224.57,-54.35 358.78,-54.35 134.22,0 253.81,18.24 358.8,54.35 105.42,36.48 194,87.55 266.21,153.21 72.2,65.3 127.57,143.73 165.22,234.56 37.65,90.83 56.25,190.78 56.25,299.85z"/>
   <polygon class="fil1" points="33170.17,10914.02 33170.17,9484.79 33489.09,9484.79 33489.09,10914.02 "/>
   <path id="_1_60" class="fil1" d="M34808.66 10149.07c124.46,146.27 225.9,275.77 303.86,388.86l7.53 0c-10.19,-185.68 -15.49,-321.01 -15.49,-406.01l0 -647.13 318.92 0 0 1429.23 -333.54 0 -566.54 -658.07c-99.67,-113.82 -202.44,-245.87 -309.18,-396.16l-7.53 0c10.19,175.1 15.49,310.8 15.49,406.74l0 647.49 -318.92 0 0 -1429.23 333.54 0 571.86 664.28z"/>
   <polygon id="_2_61" class="fil1" points="36549.02,10914.02 36230.1,10914.02 36230.1,9703.66 35669.32,9703.66 35669.32,9484.79 37108.48,9484.79 37108.48,9703.66 36549.02,9703.66 "/>
   <polygon id="_3_62" class="fil1" points="37671.46,10695.15 38525.48,10695.15 38525.48,10914.02 37352.54,10914.02 37352.54,9484.79 38478.52,9484.79 38478.52,9703.66 37671.46,9703.66 37671.46,10073.56 38364.69,10073.56 38364.69,10292.43 37671.46,10292.43 "/>
   <polygon id="_4_63" class="fil1" points="39180.6,9484.79 39180.6,10695.15 39992.98,10695.15 39992.98,10914.02 38861.68,10914.02 38861.68,9484.79 "/>
   <polygon id="_5_64" class="fil1" points="40290.65,10914.02 40290.65,9484.79 40609.57,9484.79 40609.57,10914.02 "/>
   <path id="_6_65" class="fil1" d="M42102.78 10366.84l-389.36 0 0 -218.87 708.28 0 0 721.55c-26.13,8.02 -58.92,16.05 -99.22,24.8 -40.31,8.39 -85.05,16.05 -135.1,22.98 -49.61,6.93 -100.99,12.41 -153.7,16.42 -52.72,4.38 -104.98,6.56 -156.8,6.56 -155.93,0 -291.92,-17.14 -407.97,-51.79 -116.5,-34.66 -213.06,-83.18 -290.58,-145.92 -77.52,-62.74 -135.54,-137.52 -174.08,-223.98 -38.54,-86.82 -57.58,-182.39 -57.58,-287.08 0,-74.05 10.19,-144.82 30.57,-212.31 20.37,-67.48 50.49,-129.86 89.91,-187.13 39.42,-57.27 87.71,-109.07 143.96,-155.4 56.25,-46.33 120.93,-86.09 193.13,-118.92 72.2,-32.47 151.04,-57.64 237.42,-75.15 85.93,-17.51 178.51,-26.26 276.85,-26.26 87.26,0 170.54,5.11 249.38,15.32 78.41,10.21 143.07,22.98 193.13,37.57l0 220.7c-67.33,-17.15 -135.55,-30.28 -204.2,-39.03 -68.66,-9.12 -138.2,-13.5 -208.19,-13.5 -94.35,0 -182.5,11.67 -264.89,34.65 -82.39,23.35 -153.26,57.64 -213.5,102.87 -60.25,45.24 -107.64,101.05 -142.19,167.44 -34.55,66.03 -51.82,142.99 -51.82,229.81 0.89,168.9 54.48,295.84 160.35,380.47 106.31,84.27 256.47,126.58 451.36,126.58 36.33,0 73.97,-1.45 112.51,-4.74 38.98,-3.28 73.09,-7.29 102.33,-12.4l0 -335.24z"/>
   <polygon id="_7_66" class="fil1" points="43129.53,10695.15 43983.55,10695.15 43983.55,10914.02 42810.61,10914.02 42810.61,9484.79 43936.6,9484.79 43936.6,9703.66 43129.53,9703.66 43129.53,10073.56 43822.76,10073.56 43822.76,10292.43 43129.53,10292.43 "/>
   <path id="_8_67" class="fil1" d="M45225.15 10149.07c124.46,146.27 225.91,275.77 303.86,388.86l7.53 0c-10.19,-185.68 -15.49,-321.01 -15.49,-406.01l0 -647.13 318.92 0 0 1429.23 -333.54 0 -566.54 -658.07c-99.67,-113.82 -202.43,-245.87 -309.18,-396.16l-7.53 0c10.19,175.1 15.49,310.8 15.49,406.74l0 647.49 -318.92 0 0 -1429.23 333.54 0 571.86 664.28z"/>
   <polygon id="_9" class="fil1" points="46965.51,10914.02 46646.59,10914.02 46646.59,9703.66 46085.81,9703.66 46085.81,9484.79 47524.97,9484.79 47524.97,9703.66 46965.51,9703.66 "/>
   <polygon id="_10" class="fil1" points="48087.95,10695.15 48941.97,10695.15 48941.97,10914.02 47769.03,10914.02 47769.03,9484.79 48895.02,9484.79 48895.02,9703.66 48087.95,9703.66 48087.95,10073.56 48781.18,10073.56 48781.18,10292.43 48087.95,10292.43 "/>
   <path class="fil1" d="M50569.05 9677.4c-86.37,0 -166.55,11.67 -239.64,35.38 -73.09,23.35 -135.54,57.64 -187.81,102.51 -52.72,44.87 -93.47,100.31 -122.7,166.34 -29.68,66.03 -44.29,141.54 -44.29,226.17 0,84.26 13.28,158.31 40.3,222.15 26.58,63.84 65.12,117.1 115.61,159.78 50.05,42.68 111.18,75.14 183.38,97.03 72.2,21.52 154.16,32.46 245.85,32.46 65.99,0 132.88,-4.01 201.1,-12.4 68.65,-8.02 132.44,-20.06 192.24,-35.75l0 223.62c-60.69,14.22 -125.8,25.17 -195.79,33.56 -70.43,8.02 -143.07,12.03 -218.38,12.03 -147.06,0 -276.39,-17.14 -388.02,-51.79 -111.18,-34.66 -204.65,-83.54 -279.94,-146.65 -74.86,-63.11 -131.56,-138.62 -169.22,-226.53 -37.65,-87.91 -56.69,-185.31 -56.69,-291.46 0,-109.07 20.38,-210.12 60.68,-303.5 40.31,-93.39 98.33,-174.37 174.53,-242.59 75.74,-68.58 170.53,-122.2 284.37,-161.6 113.84,-39.03 242.74,-59.09 386.25,-59.82 73.54,0 143.08,4.01 209.08,12.04 65.56,8.39 124.91,19.7 177.63,34.65l0 220.33c-69.11,-17.14 -133.78,-28.82 -193.57,-35.75 -59.36,-6.93 -117.83,-10.21 -174.97,-10.21z"/>
   <path id="_1_68" class="fil1" d="M52561.89 10198.31c0,-87.18 -12.84,-163.06 -38.98,-228.35 -25.68,-65.3 -61.56,-119.65 -107.63,-163.06 -45.63,-43.41 -100.11,-75.88 -163.01,-97.4 -62.9,-21.52 -132.01,-32.1 -207.3,-32.1 -75.3,0 -144.41,10.58 -207.31,32.1 -62.9,21.52 -117.38,53.99 -163,97.4 -46.07,43.41 -81.94,97.76 -107.64,163.06 -26.13,65.29 -38.98,141.17 -38.98,228.35 0,86.82 12.85,163.06 38.98,228.36 25.7,65.29 61.57,119.28 107.64,162.69 45.62,43.05 100.1,75.51 163,97.4 62.9,21.52 132.01,32.46 207.31,32.46 75.29,0 144.4,-10.94 207.3,-32.46 62.9,-21.89 117.38,-54.35 163.01,-97.4 46.07,-43.41 81.95,-97.4 107.63,-162.69 26.14,-65.3 38.98,-141.54 38.98,-228.36zm329.56 0c0,109.07 -18.61,209.02 -56.25,299.86 -37.66,90.83 -93.03,169.26 -165.23,234.55 -72.2,65.66 -160.78,116.73 -266.21,153.21 -104.98,36.12 -224.58,54.35 -358.79,54.35 -134.22,0 -253.81,-18.23 -358.79,-54.35 -105.42,-36.48 -194.02,-87.55 -266.22,-153.21 -72.2,-65.29 -127.12,-143.72 -164.78,-234.55 -37.65,-90.84 -56.69,-190.79 -56.69,-299.86 0,-109.07 19.04,-209.02 56.69,-299.85 37.66,-90.83 92.58,-169.26 164.78,-234.56 72.2,-65.66 160.8,-116.73 266.22,-153.21 104.98,-36.11 224.57,-54.35 358.79,-54.35 134.21,0 253.81,18.24 358.79,54.35 105.43,36.48 194.01,87.55 266.21,153.21 72.2,65.3 127.57,143.73 165.23,234.56 37.64,90.83 56.25,190.78 56.25,299.85z"/>
   <path id="_2_69" class="fil1" d="M54120.21 10530.63c38.09,-112.72 85.03,-233.46 141.29,-362.23l299.88 -683.61 446.51 0 0 1429.23 -318.94 0 0 -724.1c0,-106.15 5.32,-229.45 15.51,-369.89l-11.52 0c-14.62,40.86 -31.89,86.45 -51.83,136.79 -19.93,50.71 -40.75,100.68 -62.45,149.57l-358.8 807.63 -204.64 0 -358.79 -807.63c-21.71,-48.89 -42.52,-98.86 -62.46,-149.57 -19.93,-50.34 -37.2,-95.93 -51.82,-136.79l-11.52 0c10.19,132.05 15.5,254.62 15.5,368.8l0 725.19 -318.92 0 0 -1429.23 443.83 0 299.88 680.33c50.05,113.44 97.46,235.28 141.31,365.51l7.98 0z"/>
   <polygon class="fil1" points="56311.89,10914.02 56311.89,9484.79 56630.81,9484.79 56630.81,10914.02 "/>
   <path class="fil1" d="M58130.31 10550.69l-657.34 0 -168.33 363.33 -338.85 0 689.23 -1429.23 290.57 0 689.25 1429.23 -336.22 0 -168.31 -363.33zm-331.33 -722.27c-62.01,148.83 -116.95,273.59 -164.78,373.9l-58.91 129.5 452.69 0 -58.91 -129.13c-47.83,-101.05 -102.77,-225.8 -164.78,-374.27l-5.31 0z"/>
  </g>
 </g>
</svg>
