<svg width="2576" height="512" viewBox="0 0 2576 512" fill="none" xmlns="http://www.w3.org/2000/svg">
<path d="M256 512C397.385 512 512 397.385 512 256C512 114.615 397.385 0 256 0C114.615 0 0 114.615 0 256C0 397.385 114.615 512 256 512Z" fill="#2781F6"/>
<path d="M367 376H247.99C182.388 376 129 322.608 129 256.989C129 191.392 182.388 138 247.992 138C313.612 138 367 191.392 367 256.989V376Z" fill="white" stroke="white" stroke-width="6"/>
<path d="M2575.42 183.5V235.062H2416.75V183.5H2575.42ZM2459.87 116H2524.79V356.703C2524.79 365.297 2526.51 371.234 2529.95 374.516C2533.39 377.797 2539.87 379.438 2549.4 379.438C2553.31 379.438 2557.84 379.438 2563 379.438C2568.31 379.438 2572.45 379.438 2575.42 379.438V431C2571.2 431 2565.5 431 2558.31 431C2551.28 431 2544.17 431 2536.98 431C2510.57 431 2491.12 425.766 2478.62 415.297C2466.12 404.828 2459.87 388.656 2459.87 366.781V116Z" fill="white"/>
<path d="M2288.88 436.625C2264.19 436.625 2242.48 431.234 2223.73 420.453C2205.13 409.672 2190.6 394.594 2180.13 375.219C2169.82 355.844 2164.66 333.266 2164.66 307.484C2164.66 281.703 2169.82 259.125 2180.13 239.75C2190.6 220.219 2205.13 205.062 2223.73 194.281C2242.48 183.344 2264.19 177.875 2288.88 177.875C2313.73 177.875 2335.44 183.344 2354.04 194.281C2372.63 205.062 2387.08 220.219 2397.4 239.75C2407.87 259.125 2413.1 281.703 2413.1 307.484C2413.1 333.266 2407.87 355.844 2397.4 375.219C2387.08 394.594 2372.63 409.672 2354.04 420.453C2335.44 431.234 2313.73 436.625 2288.88 436.625ZM2288.88 383.188C2300.76 383.188 2311.07 380.219 2319.82 374.281C2328.57 368.188 2335.37 359.438 2340.21 348.031C2345.05 336.625 2347.48 323.109 2347.48 307.484C2347.48 291.547 2345.05 277.953 2340.21 266.703C2335.37 255.297 2328.57 246.547 2319.82 240.453C2311.07 234.359 2300.76 231.312 2288.88 231.312C2277.16 231.312 2266.85 234.359 2257.94 240.453C2249.19 246.547 2242.4 255.297 2237.55 266.703C2232.71 277.953 2230.29 291.547 2230.29 307.484C2230.29 323.266 2232.71 336.859 2237.55 348.266C2242.4 359.516 2249.19 368.188 2257.94 374.281C2266.85 380.219 2277.16 383.188 2288.88 383.188Z" fill="white"/>
<path d="M2026.72 436.625C2002.03 436.625 1980.31 431.234 1961.56 420.453C1942.97 409.672 1928.44 394.594 1917.97 375.219C1907.66 355.844 1902.5 333.266 1902.5 307.484C1902.5 281.703 1907.66 259.125 1917.97 239.75C1928.44 220.219 1942.97 205.062 1961.56 194.281C1980.31 183.344 2002.03 177.875 2026.72 177.875C2051.56 177.875 2073.28 183.344 2091.88 194.281C2110.47 205.062 2124.92 220.219 2135.23 239.75C2145.7 259.125 2150.94 281.703 2150.94 307.484C2150.94 333.266 2145.7 355.844 2135.23 375.219C2124.92 394.594 2110.47 409.672 2091.88 420.453C2073.28 431.234 2051.56 436.625 2026.72 436.625ZM2026.72 383.188C2038.59 383.188 2048.91 380.219 2057.66 374.281C2066.41 368.188 2073.2 359.438 2078.05 348.031C2082.89 336.625 2085.31 323.109 2085.31 307.484C2085.31 291.547 2082.89 277.953 2078.05 266.703C2073.2 255.297 2066.41 246.547 2057.66 240.453C2048.91 234.359 2038.59 231.312 2026.72 231.312C2015 231.312 2004.69 234.359 1995.78 240.453C1987.03 246.547 1980.23 255.297 1975.39 266.703C1970.55 277.953 1968.12 291.547 1968.12 307.484C1968.12 323.266 1970.55 336.859 1975.39 348.266C1980.23 359.516 1987.03 368.188 1995.78 374.281C2004.69 380.219 2015 383.188 2026.72 383.188Z" fill="white"/>
<path d="M1600.96 431L1524.56 183.5H1592.76L1616.67 273.031C1621.2 290.688 1625.57 308.891 1629.79 327.641C1634.01 346.391 1638.23 364.828 1642.45 382.953H1633.54C1638.07 364.828 1642.6 346.391 1647.13 327.641C1651.82 308.891 1656.51 290.688 1661.2 273.031L1686.04 183.5H1745.1L1769.48 273.031C1774.32 290.688 1779.01 308.891 1783.54 327.641C1788.07 346.391 1792.6 364.828 1797.13 382.953H1787.99C1792.37 364.828 1796.59 346.391 1800.65 327.641C1804.87 308.891 1809.17 290.688 1813.54 273.031L1837.45 183.5H1906.35L1829.95 431H1762.68L1733.38 330.688C1730.57 320.844 1727.84 310.844 1725.18 300.688C1722.53 290.375 1719.87 280.062 1717.21 269.75C1714.71 259.281 1712.06 248.969 1709.24 238.812H1721.9C1719.24 248.969 1716.51 259.281 1713.7 269.75C1711.04 280.062 1708.38 290.375 1705.73 300.688C1703.23 310.844 1700.49 320.844 1697.53 330.688L1667.76 431H1600.96Z" fill="white"/>
<path d="M1513.18 183.5V235.062H1354.5V183.5H1513.18ZM1397.63 116H1462.55V356.703C1462.55 365.297 1464.27 371.234 1467.71 374.516C1471.14 377.797 1477.63 379.438 1487.16 379.438C1491.07 379.438 1495.6 379.438 1500.75 379.438C1506.07 379.438 1510.21 379.438 1513.18 379.438V431C1508.96 431 1503.25 431 1496.07 431C1489.03 431 1481.93 431 1474.74 431C1448.33 431 1428.88 425.766 1416.38 415.297C1403.88 404.828 1397.63 388.656 1397.63 366.781V116Z" fill="white"/>
<path d="M1202.73 434.984C1186.32 434.984 1171.72 432.25 1158.9 426.781C1146.09 421.312 1135.93 413.109 1128.43 402.172C1121.09 391.234 1117.42 377.562 1117.42 361.156C1117.42 347.094 1120 335.453 1125.15 326.234C1130.47 316.859 1137.57 309.438 1146.48 303.969C1155.54 298.344 1165.93 294.125 1177.65 291.312C1189.37 288.344 1201.56 286.156 1214.22 284.75C1229.53 283.188 1241.64 281.781 1250.54 280.531C1259.45 279.125 1265.86 277.094 1269.76 274.438C1273.67 271.781 1275.62 267.719 1275.62 262.25V260.609C1275.62 254.047 1273.9 248.344 1270.47 243.5C1267.03 238.5 1262.18 234.594 1255.93 231.781C1249.68 228.969 1242.11 227.562 1233.2 227.562C1224.29 227.562 1216.4 228.969 1209.53 231.781C1202.81 234.594 1197.42 238.578 1193.36 243.734C1189.45 248.734 1187.18 254.594 1186.56 261.312H1124.92C1126.01 244.438 1131.01 229.828 1139.92 217.484C1148.98 205.141 1161.48 195.531 1177.42 188.656C1193.51 181.781 1212.65 178.344 1234.84 178.344C1251.4 178.344 1266.17 180.297 1279.14 184.203C1292.26 188.109 1303.28 193.734 1312.18 201.078C1321.25 208.422 1328.12 217.328 1332.81 227.797C1337.5 238.109 1339.84 249.75 1339.84 262.719V431H1276.32V396.078H1275.39C1271.17 403.891 1265.86 410.766 1259.45 416.703C1253.2 422.484 1245.39 427.016 1236.01 430.297C1226.79 433.422 1215.7 434.984 1202.73 434.984ZM1220.07 388.812C1231.79 388.812 1241.79 386.703 1250.07 382.484C1258.51 378.109 1264.92 372.25 1269.29 364.906C1273.82 357.562 1276.09 349.281 1276.09 340.062V314.281C1274.06 315.531 1271.32 316.703 1267.89 317.797C1264.61 318.734 1260.62 319.672 1255.93 320.609C1251.4 321.547 1246.4 322.484 1240.93 323.422C1235.62 324.359 1230.07 325.219 1224.29 326C1216.17 327.25 1208.75 329.203 1202.03 331.859C1195.31 334.516 1189.92 338.109 1185.86 342.641C1181.95 347.016 1180 352.719 1180 359.75C1180 365.688 1181.64 370.922 1184.92 375.453C1188.36 379.828 1193.04 383.188 1198.98 385.531C1204.92 387.719 1211.95 388.812 1220.07 388.812Z" fill="white"/>
<path d="M928.147 292.484V431H862.991V81.7812H928.147V247.25H915.256C923.225 225.375 934.397 208.422 948.772 196.391C963.303 184.359 981.662 178.344 1003.85 178.344C1021.35 178.344 1036.58 182.172 1049.55 189.828C1062.68 197.328 1072.91 208.344 1080.26 222.875C1087.6 237.406 1091.27 255.141 1091.27 276.078V431H1026.12V287.562C1026.12 270.219 1021.97 257.094 1013.69 248.188C1005.57 239.281 994.006 234.828 979.006 234.828C969.006 234.828 960.178 236.859 952.522 240.922C944.866 244.984 938.85 251.234 934.475 259.672C930.256 268.109 928.147 279.047 928.147 292.484Z" fill="white"/>
<path d="M724.812 436.625C700.438 436.625 678.953 431.156 660.359 420.219C641.922 409.281 627.547 394.125 617.234 374.75C607.078 355.375 602 332.953 602 307.484C602 282.016 607.078 259.516 617.234 239.984C627.547 220.453 641.922 205.219 660.359 194.281C678.953 183.344 700.438 177.875 724.812 177.875C740.75 177.875 755.438 180.297 768.875 185.141C782.469 189.828 794.266 196.469 804.266 205.062C814.422 213.656 822.547 223.812 828.641 235.531C834.734 247.25 838.406 260.219 839.656 274.438H776.375C775.438 267.875 773.562 262.016 770.75 256.859C768.094 251.547 764.578 247.016 760.203 243.266C755.984 239.359 750.984 236.391 745.203 234.359C739.578 232.172 733.094 231.078 725.75 231.078C713.719 231.078 703.328 234.203 694.578 240.453C685.828 246.703 679.109 255.531 674.422 266.938C669.891 278.344 667.625 291.859 667.625 307.484C667.625 322.953 669.891 336.391 674.422 347.797C679.109 359.203 685.75 368.031 694.344 374.281C703.094 380.375 713.562 383.422 725.75 383.422C733.094 383.422 739.578 382.406 745.203 380.375C750.828 378.344 755.672 375.453 759.734 371.703C763.953 367.797 767.391 363.188 770.047 357.875C772.703 352.406 774.656 346.312 775.906 339.594H839.656C838.719 353.656 835.203 366.625 829.109 378.5C823.172 390.219 815.125 400.453 804.969 409.203C794.812 417.797 782.938 424.516 769.344 429.359C755.75 434.203 740.906 436.625 724.812 436.625Z" fill="white"/>
</svg>
